<svg width="24" height="26" viewBox="0 0 24 26" fill="none" xmlns="http://www.w3.org/2000/svg">
<path fill-rule="evenodd" clip-rule="evenodd" d="M13.6061 8.08281C14.8587 7.48308 15.7238 6.20368 15.7238 4.72222C15.7238 2.66562 14.0566 0.998413 12 0.998413C9.94339 0.998413 8.27619 2.66562 8.27619 4.72222C8.27619 6.20368 9.14129 7.48308 10.3939 8.08281H7.22634C6.15363 8.08281 5.21773 8.81085 4.95385 9.85061L1.57289 24.1726C1.33786 25.0987 1.03774 24.9984 1.99319 24.9984H12H22.0068C22.9622 24.9984 22.6621 25.0987 22.4271 24.1726L19.0461 9.85061C18.7822 8.81085 17.8464 8.08281 16.7736 8.08281H13.6061ZM13.7074 4.72222C13.7074 5.66522 12.943 6.42967 12 6.42967C11.057 6.42967 10.2925 5.66522 10.2925 4.72222C10.2925 3.77922 11.057 3.01477 12 3.01477C12.943 3.01477 13.7074 3.77922 13.7074 4.72222ZM15.5979 16.5406C15.5979 18.5277 13.9871 20.1385 12 20.1385C10.0129 20.1385 8.40209 18.5277 8.40209 16.5406C8.40209 14.5536 10.0129 12.9427 12 12.9427C13.9871 12.9427 15.5979 14.5536 15.5979 16.5406Z" fill="black"/>
</svg>
