<svg width="8" height="8" viewBox="0 0 8 8" fill="none" xmlns="http://www.w3.org/2000/svg">
<path d="M4.52708 2.36135C4.93831 2.16138 5.2222 1.7351 5.2222 1.24117C5.2222 0.555925 4.6751 0 4 0C3.3249 0 2.7778 0.555925 2.7778 1.24117C2.7778 1.7351 3.06169 2.16138 3.47292 2.36135H2.4332C2.08137 2.36135 1.77418 2.60398 1.68754 2.9506L0.577916 7.72396C0.50079 8.03258 0.402331 7.99892 0.715757 7.99892H7.28424C7.59767 7.99892 7.49921 8.03258 7.42208 7.72396L6.31246 2.9506C6.22581 2.60398 5.91863 2.36135 5.5668 2.36135H4.52708ZM4.56023 1.24117C4.56023 1.55546 4.30949 1.81042 4 1.81042C3.69051 1.81042 3.43977 1.55546 3.43977 1.24117C3.43977 0.926875 3.69051 0.672243 4 0.672243C4.30949 0.672243 4.56023 0.926875 4.56023 1.24117ZM5.18084 5.1803C5.18084 5.84255 4.65212 6.37947 4 6.37947C3.34788 6.37947 2.81916 5.84255 2.81916 5.1803C2.81916 4.51806 3.34788 3.98113 4 3.98113C4.65212 3.98113 5.18084 4.51806 5.18084 5.1803Z" fill="black"/>
</svg>
