<?xml version="1.0" standalone="no"?>
<!DOCTYPE svg PUBLIC "-//W3C//DTD SVG 1.1//EN" "http://www.w3.org/Graphics/SVG/1.1/DTD/svg11.dtd" >
<svg xmlns="http://www.w3.org/2000/svg" xmlns:xlink="http://www.w3.org/1999/xlink" version="1.1">
<metadata>
Created by FontForge 20170812 at Thu Mar 24 12:47:33 2022
 By www-data
Created by P.J. Onori with FontForge 2.0 \(http://fontforge.sf.net\)
</metadata>
<defs>
<font id="Icons-iconic" horiz-adv-x="800" >
  <font-face 
    font-family="Icons iconic"
    font-weight="400"
    font-stretch="normal"
    units-per-em="800"
    panose-1="0 0 5 0 0 0 0 0 0 0"
    ascent="640"
    descent="-160"
    cap-height="800"
    bbox="-0.5 -101 871.598 962"
    underline-thickness="50"
    underline-position="-100"
    stemh="50"
    stemv="50"
    unicode-range="U+0020-EADA"
  />
<missing-glyph 
d="M300 600v100h500v-700h-760v300h-40v100h40v133h320v-133h40v100l200 -150l-200 -150v100h-40v-200h340v500h-400zM320 493h-240v-93h240v93zM80 300v-260h220v60h20v200h-240z" />
    <glyph glyph-name=".notdef" 
d="M300 600v100h500v-700h-760v300h-40v100h40v133h320v-133h40v100l200 -150l-200 -150v100h-40v-200h340v500h-400zM320 493h-240v-93h240v93zM80 300v-260h220v60h20v200h-240z" />
    <glyph glyph-name="a" unicode="A" 
d="M400 800c221 0 400 -179 400 -400s-179 -400 -400 -400s-400 179 -400 400s179 400 400 400zM400 700l-300 -300l300 -300v200h300v200h-300v200z" />
    <glyph glyph-name="a" unicode="a" 
d="M400 800c221 0 400 -179 400 -400s-179 -400 -400 -400s-400 179 -400 400s179 400 400 400zM400 700l-300 -300l300 -300v200h300v200h-300v200z" />
    <glyph glyph-name="uniA733" unicode="&#xa732;" 
d="M300 800h200v-300h300v-200h-300v-300h-200v300h-300v200h300v300z" />
    <glyph glyph-name="uniA733" unicode="&#xa733;" 
d="M300 800h200v-300h300v-200h-300v-300h-200v300h-300v200h300v300z" />
    <glyph glyph-name="ae" unicode="&#xc6;" 
d="M325 700c42 -141 87 -280 131 -419c29 74 59 148 88 222c30 -57 58 -114 87 -172h169v-100h-231l-13 28c-37 -92 -74 -184 -112 -275c-38 129 -79 257 -119 385c-42 -133 -83 -267 -125 -400l-84 262h-116v100h188l9 -34l3 -6c42 137 83 273 125 409z" />
    <glyph glyph-name="ae" unicode="&#xe6;" 
d="M325 700c42 -141 87 -280 131 -419c29 74 59 148 88 222c30 -57 58 -114 87 -172h169v-100h-231l-13 28c-37 -92 -74 -184 -112 -275c-38 129 -79 257 -119 385c-42 -133 -83 -267 -125 -400l-84 262h-116v100h188l9 -34l3 -6c42 137 83 273 125 409z" />
    <glyph glyph-name="b" unicode="B" 
d="M400 800c221 0 400 -179 400 -400s-179 -400 -400 -400s-400 179 -400 400s179 400 400 400zM400 700v-200h-300v-200h300v-200l300 300z" />
    <glyph glyph-name="b" unicode="b" 
d="M400 800c221 0 400 -179 400 -400s-179 -400 -400 -400s-400 179 -400 400s179 400 400 400zM400 700v-200h-300v-200h300v-200l300 300z" />
    <glyph glyph-name="c" unicode="C" 
d="M400 800c221 0 400 -179 400 -400s-179 -400 -400 -400s-400 179 -400 400s179 400 400 400zM400 700l-300 -300h200v-300h200v300h200z" />
    <glyph glyph-name="c" unicode="c" 
d="M400 800c221 0 400 -179 400 -400s-179 -400 -400 -400s-400 179 -400 400s179 400 400 400zM400 700l-300 -300h200v-300h200v300h200z" />
    <glyph glyph-name="d" unicode="D" 
d="M300 600v-200h500v-100h-500v-200l-300 247z" />
    <glyph glyph-name="d" unicode="d" 
d="M300 600v-200h500v-100h-500v-200l-300 247z" />
    <glyph glyph-name="e" unicode="E" 
d="M500 600l300 -247l-300 -253v200h-500v100h500v200z" />
    <glyph glyph-name="e" unicode="e" 
d="M500 600l300 -247l-300 -253v200h-500v100h500v200z" />
    <glyph glyph-name="f" unicode="F" horiz-adv-x="600" 
d="M200 800h200v-500h200l-297 -300l-303 300h200v500z" />
    <glyph glyph-name="f" unicode="f" horiz-adv-x="600" 
d="M200 800h200v-500h200l-297 -300l-303 300h200v500z" />
    <glyph glyph-name="one" unicode="1" 
d="M300 700h500v-700h-500v100h400v500h-400v100zM200 500v-100h400v-100h-400v-100l-200 150z" />
    <glyph glyph-name="two" unicode="2" 
d="M700 350v-50h100l-200 -200l-200 200h100v50c0 138 -112 250 -250 250s-250 -112 -250 -249c0 192 157 349 350 349s350 -157 350 -350zM0 351v-1v1z" />
    <glyph glyph-name="three" unicode="3" 
d="M450 700c193 0 350 -157 350 -349c0 137 -112 249 -250 249s-250 -112 -250 -250v-50h100l-200 -200l-200 200h100v50c0 193 157 350 350 350zM800 351v-1v1z" />
    <glyph glyph-name="four" unicode="4" 
d="M0 700h800v-100h-800v100zM100 500h600v-100h-600v100zM0 300h800v-100h-800v100zM100 100h600v-100h-600v100z" />
    <glyph glyph-name="five" unicode="5" 
d="M0 700h800v-100h-800v100zM0 500h600v-100h-600v100zM0 300h800v-100h-800v100zM0 100h600v-100h-600v100z" />
    <glyph glyph-name="six" unicode="6" 
d="M0 700h800v-100h-800v100zM200 500h600v-100h-600v100zM0 300h800v-100h-800v100zM200 100h600v-100h-600v100z" />
    <glyph glyph-name="seven" unicode="7" 
d="M400 700c75 0 146 -23 206 -59l-75 -225l-322 234c57 31 122 50 191 50zM125 588l191 -138l-310 -222c-4 24 -6 47 -6 72c0 114 49 215 125 288zM566 200l122 375c69 -72 112 -168 112 -275c0 -35 -8 -68 -16 -100h-218zM216 253l112 -347c-128 23 -232 109 -287 222z
M372 100h372c-64 -109 -177 -185 -310 -197z" />
    <glyph glyph-name="eight" unicode="8" horiz-adv-x="600" 
d="M200 800h100v-500h200l-247 -300l-253 300h200v500z" />
    <glyph glyph-name="nine" unicode="9" 
d="M400 800c221 0 400 -179 400 -400s-179 -400 -400 -400s-400 179 -400 400s179 400 400 400zM300 700v-300h-200l300 -300l300 300h-200v300h-200z" />
    <glyph glyph-name="uniE010" unicode="&#xe010;" 
d="M300 700v-200h500v-200h-500v-200l-300 297z" />
    <glyph glyph-name="uniE011" unicode="&#xe011;" 
d="M500 700l300 -297l-300 -303v200h-500v200h500v200z" />
    <glyph glyph-name="uniE012" unicode="&#xe012;" horiz-adv-x="600" 
d="M297 800l303 -300h-200v-500h-200v500h-200z" />
    <glyph glyph-name="uniE013" unicode="&#xe013;" horiz-adv-x="600" 
d="M247 800l253 -300h-200v-500h-100v500h-200z" />
    <glyph glyph-name="uniE014" unicode="&#xe014;" 
d="M400 800h100v-800h-100v800zM200 700h100v-600h-100v600zM600 600h100v-400h-100v400zM0 500h100v-200h-100v200z" />
    <glyph glyph-name="uniE015" unicode="&#xe015;" 
d="M116 600l72 -72c-54 -54 -88 -126 -88 -209s34 -159 88 -213l-72 -72c-72 72 -116 175 -116 285s44 209 116 281zM612 528l72 72c72 -72 116 -171 116 -281s-44 -213 -116 -285l-72 72c54 54 88 130 88 213s-34 155 -88 209zM259 460l69 -72c-18 -18 -28 -41 -28 -69
s10 -54 28 -72l-69 -72c-36 36 -59 89 -59 144s23 105 59 141zM472 388l69 71c36 -36 59 -85 59 -140s-23 -108 -59 -144l-69 72c18 18 28 44 28 72s-10 51 -28 69z" />
    <glyph glyph-name="uniE016" unicode="&#xe016;" horiz-adv-x="400" 
d="M200 800c110 0 200 -90 200 -200s-90 -200 -200 -200s-200 90 -200 200s90 200 200 200zM100 0v319c31 -11 65 -19 100 -19s68 8 100 19v-319l-100 100z" />
    <glyph glyph-name="uniE017" unicode="&#xe017;" 
d="M400 800c220 0 400 -180 400 -400s-180 -400 -400 -400s-400 180 -400 400s180 400 400 400zM400 700c-166 0 -300 -134 -300 -300c0 -66 21 -126 56 -175l419 419c-49 35 -109 56 -175 56zM644 575l-419 -419c49 -35 109 -56 175 -56c166 0 300 134 300 300
c0 66 -21 126 -56 175z" />
    <glyph glyph-name="uniE018" unicode="&#xe018;" 
d="M0 700h100v-600h700v-100h-800v700zM500 700h200v-500h-200v500zM200 500h200v-300h-200v300z" />
    <glyph glyph-name="uniE019" unicode="&#xe019;" 
d="M397 800c13 1 23 -4 34 -13c2 -2 214 -254 241 -287h128v-100h-100v-366c0 -18 -16 -34 -34 -34h-532c-18 0 -34 16 -34 34v366h-100v100h128l234 281c9 11 22 18 35 19zM400 672l-144 -172h288zM250 300c-28 0 -50 -22 -50 -50v-100c0 -28 22 -50 50 -50s50 22 50 50
v100c0 28 -22 50 -50 50zM550 300c-28 0 -50 -22 -50 -50v-100c0 -28 22 -50 50 -50s50 22 50 50v100c0 28 -22 50 -50 50z" />
    <glyph glyph-name="uniE01A" unicode="&#xe01a;" 
d="M9 700h682c6 0 9 -4 9 -10v-190h100v-200h-100v-191c0 -6 -3 -9 -9 -9h-682c-6 0 -9 3 -9 9v582c0 6 3 9 9 9zM100 600v-400h500v400h-500z" />
    <glyph glyph-name="uniE01B" unicode="&#xe01b;" 
d="M9 700h682c6 0 9 -4 9 -10v-190h100v-200h-100v-191c0 -6 -3 -9 -9 -9h-682c-6 0 -9 3 -9 9v582c0 6 3 9 9 9z" />
    <glyph glyph-name="uniE01C" unicode="&#xe01c;" 
d="M92 650c0 23 19 50 45 50h513c28 0 50 -22 50 -50s-22 -50 -50 -50h-50v-141c9 -17 120 -231 166 -309c16 -26 34 -61 34 -106c0 -39 -15 -77 -41 -103h-3c-26 -25 -62 -41 -100 -41h-512c-39 0 -77 15 -103 41s-41 64 -41 103c0 46 18 80 34 106c46 78 157 292 166 309
v141h-50l-8 -1c-28 0 -50 23 -50 51zM500 600h-200v-162l-6 -10s-63 -123 -119 -228h450c-56 105 -119 228 -119 228l-6 10v162z" />
    <glyph glyph-name="uniE01D" unicode="&#xe01d;" 
d="M400 800c110 0 200 -90 200 -200c0 -104 52 -198 134 -266c41 -34 66 -82 66 -134h-800c0 52 25 100 66 134c82 68 134 162 134 266c0 110 90 200 200 200zM300 100h200c0 -55 -45 -100 -100 -100s-100 45 -100 100z" />
    <glyph glyph-name="uniE01E" unicode="&#xe01e;" horiz-adv-x="600" 
d="M150 800h50l350 -250l-225 -147l225 -153l-350 -250h-50v250l-75 -75l-75 75l150 150l-150 150l75 75l75 -75v250zM250 650v-200l150 100zM250 350v-200l150 100z" />
    <glyph glyph-name="uniE01F" unicode="&#xe01f;" 
d="M0 800h500c110 0 200 -90 200 -200c0 -47 -17 -91 -44 -125c85 -40 144 -125 144 -225c0 -138 -112 -250 -250 -250h-550v100c55 0 100 45 100 100v400c0 55 -45 100 -100 100v100zM300 700v-200h100c55 0 100 45 100 100s-45 100 -100 100h-100zM300 400v-300h150
c83 0 150 67 150 150s-67 150 -150 150h-150z" />
    <glyph glyph-name="uniE020" unicode="&#xe020;" horiz-adv-x="600" 
d="M300 800v-300h200l-300 -500v300h-200z" />
    <glyph glyph-name="uniE021" unicode="&#xe021;" 
d="M100 800h300v-300l100 100l100 -100v300h50c28 0 50 -22 50 -50v-550h-550c-28 0 -50 -22 -50 -50s22 -50 50 -50h550v-100h-550c-83 0 -150 67 -150 150v550l3 19c8 39 39 70 78 78z" />
    <glyph glyph-name="uniE022" unicode="&#xe022;" horiz-adv-x="400" 
d="M0 800h400v-800l-200 200l-200 -200v800z" />
    <glyph glyph-name="uniE023" unicode="&#xe023;" 
d="M0 800h800v-100h-800v100zM0 600h300v-103h203v103h297v-591c0 -6 -3 -9 -9 -9h-782c-6 0 -9 3 -9 9v591z" />
    <glyph glyph-name="uniE024" unicode="&#xe024;" 
d="M300 800h200c55 0 100 -45 100 -100v-100h191c6 0 9 -3 9 -9v-241c0 -28 -22 -50 -50 -50h-700c-28 0 -50 22 -50 50v241c0 6 3 9 9 9h191v100c0 55 45 100 100 100zM300 700v-100h200v100h-200zM0 9v200c16 -6 32 -9 50 -9h700c18 0 34 3 50 9v-200c0 -6 -3 -9 -9 -9
h-782c-6 0 -9 3 -9 9z" />
    <glyph glyph-name="uniE025" unicode="&#xe025;" horiz-adv-x="600" 
d="M300 800c58 0 110 -16 147 -53s53 -89 53 -147h-100c0 39 -11 61 -25 75s-36 25 -75 25c-35 0 -55 -10 -72 -31s-28 -55 -28 -94c0 -51 20 -107 28 -175h172v-100h-178c-14 -60 -49 -127 -113 -200h491v-100h-600v122l16 12c69 69 95 121 106 166h-122v100h125
c-8 50 -25 106 -25 175c0 58 16 114 50 156c34 43 88 69 150 69z" />
    <glyph glyph-name="uniE026" unicode="&#xe026;" 
d="M34 700h716c28 0 50 -22 50 -50v-700c0 -28 -22 -50 -50 -50h-700c-28 0 -50 22 -50 50v702c0 20 15 42 34 48zM150 600c-28 0 -50 -22 -50 -50s22 -50 50 -50s50 22 50 50s-22 50 -50 50zM650 600h-300c-28 0 -50 -22 -50 -50s22 -50 50 -50h300c28 0 50 22 50 50
s-22 50 -50 50zM100 400v-400h600v400h-600z" />
    <glyph glyph-name="uniE027" unicode="&#xe027;" 
d="M744 797l6 -3l44 -44c4 -4 3 -8 0 -12l-266 -375l-15 -13l-25 -12c-23 72 -78 127 -150 150l12 25l13 15l375 266zM266 400c74 0 134 -60 134 -134c0 -147 -119 -266 -266 -266c-48 0 -95 12 -134 34c80 46 134 133 134 232c0 74 58 134 132 134z" />
    <glyph glyph-name="uniE028" unicode="&#xe028;" 
d="M9 451c0 23 19 50 46 50c8 0 19 -3 26 -7l131 -66l29 22c-79 81 -1 250 118 250s197 -167 119 -250l28 -22l131 66c6 4 12 7 21 7c28 0 50 -22 50 -50c0 -17 -12 -37 -27 -45l-115 -56c9 -16 19 -33 25 -50h68c28 0 50 -22 50 -50s-22 -50 -50 -50h-50
c0 -23 -2 -45 -6 -66l78 -40c21 -5 37 -28 37 -49c0 -28 -22 -50 -50 -50c-10 0 -23 5 -31 11l-65 35c-24 -46 -62 -86 -103 -110c-35 19 -60 45 -60 72v247c0 28 -22 50 -50 50c-24 0 -45 -17 -50 -40c1 -3 1 -8 1 -11s0 -8 -1 -11v-235c0 -28 -24 -53 -59 -72
c-41 25 -79 64 -103 110l-66 -35c-8 -6 -21 -11 -31 -11c-28 0 -50 22 -50 50c0 21 16 44 37 49l78 40c-4 21 -6 43 -6 66h-55c-28 0 -50 22 -50 50c0 26 22 50 50 50h74c6 17 16 34 25 50l-116 56c-16 7 -28 27 -28 45z" />
    <glyph glyph-name="uniE029" unicode="&#xe029;" 
d="M600 700h91c6 0 9 -3 9 -9v-582c0 -6 -3 -9 -9 -9h-91v600zM210 503l290 147v-500l-250 125v-3c-15 0 -25 -8 -28 -22l75 -178c11 -25 0 -58 -25 -69s-58 0 -69 25l-103 272h-91c-6 0 -9 3 -9 9v182c0 6 3 9 9 9h182z" />
    <glyph glyph-name="uniE02A" unicode="&#xe02a;" 
d="M9 800h682c6 0 9 -3 9 -9v-782c0 -6 -3 -9 -9 -9h-682c-6 0 -9 3 -9 9v782c0 6 3 9 9 9zM100 700v-200h500v200h-500zM100 400v-100h100v100h-100zM300 400v-100h100v100h-100zM500 400v-300h100v300h-100zM100 200v-100h100v100h-100zM300 200v-100h100v100h-100z" />
    <glyph glyph-name="uniE02B" unicode="&#xe02b;" 
d="M0 800h700v-200h-700v200zM0 500h700v-491c0 -6 -3 -9 -9 -9h-682c-6 0 -9 3 -9 9v491zM100 400v-100h100v100h-100zM300 400v-100h100v100h-100zM500 400v-100h100v100h-100zM100 200v-100h100v100h-100zM300 200v-100h100v100h-100z" />
    <glyph glyph-name="uniE02C" unicode="&#xe02c;" 
d="M409 800h182c6 0 10 -4 12 -9l94 -182c2 -5 6 -9 12 -9h82c6 0 9 -3 9 -9v-582c0 -6 -3 -9 -9 -9h-782c-6 0 -9 3 -9 9v441c0 83 67 150 150 150h141c6 0 10 4 12 9l94 182c2 5 6 9 12 9zM150 500c-28 0 -50 -22 -50 -50s22 -50 50 -50s50 22 50 50s-22 50 -50 50z
M500 500c-110 0 -200 -90 -200 -200s90 -200 200 -200s200 90 200 200s-90 200 -200 200zM500 400c55 0 100 -45 100 -100s-45 -100 -100 -100s-100 45 -100 100s45 100 100 100z" />
    <glyph glyph-name="uniE02D" unicode="&#xe02d;" 
d="M0 600h800l-400 -400z" />
    <glyph glyph-name="uniE02E" unicode="&#xe02e;" horiz-adv-x="400" 
d="M400 800v-800l-400 400z" />
    <glyph glyph-name="uniE02F" unicode="&#xe02f;" horiz-adv-x="400" 
d="M0 800l400 -400l-400 -400v800z" />
    <glyph glyph-name="uniE030" unicode="&#xe030;" 
d="M400 600l400 -400h-800z" />
    <glyph glyph-name="uniE031" unicode="&#xe031;" 
d="M0 550c0 23 20 50 46 50h212c17 0 37 -13 44 -28l38 -72h444c14 0 19 -12 15 -25l-81 -250c-4 -13 -21 -25 -35 -25h-350c-14 0 -30 12 -34 25l-81 250l-10 25h-150l-7 -1c-28 0 -51 23 -51 51zM358 100c28 0 50 -22 50 -50s-22 -50 -50 -50s-50 22 -50 50s22 50 50 50z
M658 100c28 0 50 -22 50 -50s-22 -50 -50 -50s-50 22 -50 50s22 50 50 50z" />
    <glyph glyph-name="uniE032" unicode="&#xe032;" 
d="M0 700h500v-100h-300v-300h-100l-100 -100v500zM300 500h500v-500l-100 100h-400v400z" />
    <glyph glyph-name="uniE033" unicode="&#xe033;" 
d="M641 700l143 -141l-493 -493c-71 76 -146 148 -219 222l-72 71l141 141c50 -51 101 -101 153 -150c116 117 234 231 347 350z" />
    <glyph glyph-name="uniE034" unicode="&#xe034;" 
d="M150 600l250 -250l250 250l150 -150l-400 -400l-400 400z" />
    <glyph glyph-name="uniE035" unicode="&#xe035;" horiz-adv-x="600" 
d="M400 800l150 -150l-250 -250l250 -250l-150 -150l-400 400z" />
    <glyph glyph-name="uniE036" unicode="&#xe036;" horiz-adv-x="600" 
d="M150 800l400 -400l-400 -400l-150 150l250 250l-250 250z" />
    <glyph glyph-name="uniE037" unicode="&#xe037;" 
d="M400 600l400 -400l-150 -150l-250 250l-250 -250l-150 150z" />
    <glyph glyph-name="uniE038" unicode="&#xe038;" 
d="M400 800c221 0 400 -179 400 -400s-179 -400 -400 -400s-400 179 -400 400s179 400 400 400zM600 622l-250 -250l-100 100l-72 -72l172 -172l322 322z" />
    <glyph glyph-name="uniE039" unicode="&#xe039;" 
d="M400 800c221 0 400 -179 400 -400s-179 -400 -400 -400s-400 179 -400 400s179 400 400 400zM250 622l-72 -72l150 -150l-150 -150l72 -72l150 150l150 -150l72 72l-150 150l150 150l-72 72l-150 -150z" />
    <glyph glyph-name="uniE03A" unicode="&#xe03a;" 
d="M350 800c28 0 50 -22 50 -50v-50h75c14 0 25 -11 25 -25v-75h-300v75c0 14 11 25 25 25h75v50c0 28 22 50 50 50zM25 700h75v-200h500v200h75c14 0 25 -11 25 -25v-650c0 -14 -11 -25 -25 -25h-650c-14 0 -25 11 -25 25v650c0 14 11 25 25 25z" />
    <glyph glyph-name="uniE03B" unicode="&#xe03b;" 
d="M400 800c220 0 400 -180 400 -400s-180 -400 -400 -400s-400 180 -400 400s180 400 400 400zM400 700c-166 0 -300 -134 -300 -300s134 -300 300 -300s300 134 300 300s-134 300 -300 300zM350 600h100v-181c23 -24 47 -47 72 -69l-72 -72c-27 30 -55 59 -84 88l-16 12
v222z" />
    <glyph glyph-name="uniE03C" unicode="&#xe03c;" 
d="M450 800c138 0 250 -112 250 -250v-50c58 -21 100 -85 100 -150c0 -18 -3 -34 -9 -50h-191v50c0 83 -67 150 -150 150s-150 -67 -150 -150v-50h-272c-17 30 -28 63 -28 100c0 110 90 200 200 200c23 114 129 200 250 200zM434 400h7c3 0 6 1 9 1c28 0 50 -22 50 -50v-151
h150l-200 -200l-200 200h150v152c0 20 15 42 34 48z" />
    <glyph glyph-name="uniE03D" unicode="&#xe03d;" 
d="M450 800c138 0 250 -112 250 -250v-50c58 -21 100 -85 100 -150c0 -18 -3 -34 -9 -50h-141l-200 200l-200 -200h-222c-17 30 -28 63 -28 100c0 110 90 200 200 200c23 114 129 200 250 200zM450 350l250 -250h-200v-50c0 -28 -22 -50 -50 -50s-50 22 -50 50v50h-200z" />
    <glyph glyph-name="uniE03E" unicode="&#xe03e;" 
d="M450 700c138 0 250 -112 250 -250v-50c58 -21 100 -85 100 -150c0 -83 -67 -150 -150 -150h-450c-110 0 -200 90 -200 200s90 200 200 200c23 114 129 200 250 200z" />
    <glyph glyph-name="uniE03F" unicode="&#xe03f;" 
d="M250 800c82 0 154 -40 200 -100c-143 0 -270 -85 -325 -209c-36 -10 -70 -25 -100 -47c-16 33 -25 67 -25 106c0 138 112 250 250 250zM450 600c138 0 250 -112 250 -250v-50c58 -21 100 -85 100 -150c0 -83 -67 -150 -150 -150h-450c-110 0 -200 90 -200 200
s90 200 200 200c23 114 129 200 250 200z" />
    <glyph glyph-name="uniE040" unicode="&#xe040;" 
d="M500 700h100l-300 -600h-100zM100 600h100l-100 -200l100 -200h-100l-100 200zM600 600h100l100 -200l-100 -200h-100l100 200z" />
    <glyph glyph-name="uniE041" unicode="&#xe041;" 
d="M350 800h100l50 -119l28 -12l119 50l72 -72l-50 -119l12 -28l119 -50v-100l-119 -50l-12 -28l50 -119l-72 -72l-119 50l-28 -12l-50 -119h-100l-50 119l-28 12l-119 -50l-72 72l50 119l-12 28l-119 50v100l119 50l12 28l-50 119l72 72l119 -50l28 12zM400 550
c-83 0 -150 -67 -150 -150s67 -150 150 -150s150 67 150 150s-67 150 -150 150z" />
    <glyph glyph-name="uniE042" unicode="&#xe042;" 
d="M0 800h800v-200h-800v200zM200 500h400l-200 -200zM0 100h800v-100h-800v100z" />
    <glyph glyph-name="uniE043" unicode="&#xe043;" 
d="M0 800h100v-800h-100v800zM600 800h200v-800h-200v800zM500 600v-400l-200 200z" />
    <glyph glyph-name="uniE044" unicode="&#xe044;" 
d="M0 800h200v-800h-200v800zM700 800h100v-800h-100v800zM300 600l200 -200l-200 -200v400z" />
    <glyph glyph-name="uniE045" unicode="&#xe045;" 
d="M0 800h800v-100h-800v100zM400 500l200 -200h-400zM0 200h800v-200h-800v200z" />
    <glyph glyph-name="uniE046" unicode="&#xe046;" 
d="M150 700c83 0 150 -67 150 -150v-50h100v50c0 83 67 150 150 150s150 -67 150 -150s-67 -150 -150 -150h-50v-100h50c83 0 150 -67 150 -150s-67 -150 -150 -150s-150 67 -150 150v50h-100v-50c0 -83 -67 -150 -150 -150s-150 67 -150 150s67 150 150 150h50v100h-50
c-83 0 -150 67 -150 150s67 150 150 150zM150 600c-28 0 -50 -22 -50 -50s22 -50 50 -50h50v50c0 28 -22 50 -50 50zM550 600c-28 0 -50 -22 -50 -50v-50h50c28 0 50 22 50 50s-22 50 -50 50zM300 400v-100h100v100h-100zM200 200h-50c-28 0 -50 -22 -50 -50s22 -50 50 -50
s50 22 50 50v50zM500 200v-50c0 -28 22 -50 50 -50s50 22 50 50s-22 50 -50 50h-50z" />
    <glyph glyph-name="uniE047" unicode="&#xe047;" 
d="M0 209v582c0 5 4 9 9 9h782c6 0 9 -4 9 -10v-790l-200 200h-591c-6 0 -9 3 -9 9z" />
    <glyph glyph-name="uniE048" unicode="&#xe048;" 
d="M400 800c220 0 400 -180 400 -400s-180 -400 -400 -400s-400 180 -400 400s180 400 400 400zM400 700c-166 0 -300 -134 -300 -300s134 -300 300 -300s300 134 300 300s-134 300 -300 300zM600 600l-100 -300l-300 -100l100 300zM400 450c-28 0 -50 -22 -50 -50
s22 -50 50 -50s50 22 50 50s-22 50 -50 50z" />
    <glyph glyph-name="uniE049" unicode="&#xe049;" 
d="M400 800c220 0 400 -180 400 -400s-180 -400 -400 -400s-400 180 -400 400s180 400 400 400zM400 700v-600c166 0 300 134 300 300s-134 300 -300 300z" />
    <glyph glyph-name="uniE04A" unicode="&#xe04a;" 
d="M0 800h800v-100h-800v100zM0 600h500v-100h-500v100zM0 300h800v-100h-800v100zM0 100h600v-100h-600v100zM750 100c28 0 50 -22 50 -50s-22 -50 -50 -50s-50 22 -50 50s22 50 50 50z" />
    <glyph glyph-name="uniE04B" unicode="&#xe04b;" 
d="M25 700h750c14 0 25 -11 25 -25v-75h-800v75c0 14 11 25 25 25zM0 500h800v-375c0 -14 -11 -25 -25 -25h-750c-14 0 -25 11 -25 25v375zM100 300v-100h100v100h-100zM300 300v-100h100v100h-100z" />
    <glyph glyph-name="uniE04C" unicode="&#xe04c;" 
d="M100 800h100v-100h450l100 100l50 -50l-100 -100v-450h100v-100h-100v-100h-100v100h-500v500h-100v100h100v100zM200 600v-350l350 350h-350zM600 550l-350 -350h350v350z" />
    <glyph glyph-name="uniE04D" unicode="&#xe04d;" 
d="M400 800c220 0 400 -180 400 -400s-180 -400 -400 -400s-400 180 -400 400s180 400 400 400zM400 700c-166 0 -300 -134 -300 -300s134 -300 300 -300s300 134 300 300s-134 300 -300 300zM400 600c28 0 50 -22 50 -50s-22 -50 -50 -50s-50 22 -50 50s22 50 50 50z
M200 452c0 20 15 42 34 48h14c12 0 28 -7 36 -16l91 -90l25 6c55 0 100 -45 100 -100s-45 -100 -100 -100s-100 45 -100 100l6 25l-90 91c-9 8 -16 24 -16 36zM550 500c28 0 50 -22 50 -50s-22 -50 -50 -50s-50 22 -50 50s22 50 50 50z" />
    <glyph glyph-name="uniE04E" unicode="&#xe04e;" 
d="M300 800h200v-300h200l-300 -300l-300 300h200v300zM0 100h800v-100h-800v100z" />
    <glyph glyph-name="uniE04F" unicode="&#xe04f;" 
d="M0 800h800v-100h-800v100zM400 600l300 -300h-200v-300h-200v300h-200z" />
    <glyph glyph-name="uniE050" unicode="&#xe050;" 
d="M200 700h600v-600h-600l-200 300zM350 622l-72 -72l150 -150l-150 -150l72 -72l150 150l150 -150l72 72l-150 150l150 150l-72 72l-150 -150z" />
    <glyph glyph-name="uniE051" unicode="&#xe051;" 
d="M400 700c220 0 400 -180 400 -400h-100c0 166 -134 300 -300 300s-300 -134 -300 -300h-100c0 220 180 400 400 400zM341 491l59 -88l59 88c81 -25 141 -101 141 -191c0 -110 -90 -200 -200 -200s-200 90 -200 200c0 90 60 166 141 191z" />
    <glyph glyph-name="uniE052" unicode="&#xe052;" 
d="M0 800h300v-400h400v-400h-700v800zM400 800l300 -300h-300v300zM100 600v-100h100v100h-100zM100 400v-100h100v100h-100zM100 200v-100h400v100h-400z" />
    <glyph glyph-name="uniE053" unicode="&#xe053;" horiz-adv-x="600" 
d="M200 700h100v-100h75c30 0 58 -6 81 -22s44 -44 44 -78v-100h-100v94c-4 3 -13 6 -25 6h-250c-14 0 -25 -11 -25 -25v-50c0 -15 20 -40 34 -44l257 -65c66 -16 109 -73 109 -141v-50c0 -68 -57 -125 -125 -125h-75v-100h-100v100h-75c-30 0 -58 6 -81 22s-44 44 -44 78
v100h100v-94c4 -3 13 -6 25 -6h250c14 0 25 11 25 25v50c0 15 -20 40 -34 44l-257 65c-66 16 -109 73 -109 141v50c0 68 57 125 125 125h75v100z" />
    <glyph glyph-name="uniE054" unicode="&#xe054;" 
d="M0 700h300v-300l-300 -300v600zM500 700h300v-300l-300 -300v600z" />
    <glyph glyph-name="uniE055" unicode="&#xe055;" 
d="M300 700v-600h-300v300zM800 700v-600h-300v300z" />
    <glyph glyph-name="uniE056" unicode="&#xe056;" 
d="M300 700v-100c-111 0 -200 -89 -200 -200h200v-300h-300v300c0 165 135 300 300 300zM800 700v-100c-111 0 -200 -89 -200 -200h200v-300h-300v300c0 165 135 300 300 300z" />
    <glyph glyph-name="uniE057" unicode="&#xe057;" 
d="M0 700h300v-300c0 -165 -135 -300 -300 -300v100c111 0 200 89 200 200h-200v300zM500 700h300v-300c0 -165 -135 -300 -300 -300v100c111 0 200 89 200 200h-200v300z" />
    <glyph glyph-name="uniE058" unicode="&#xe058;" horiz-adv-x="600" 
d="M300 800l34 -34c11 -11 266 -270 266 -488c0 -165 -135 -300 -300 -300s-300 135 -300 300c0 218 255 477 266 488zM150 328c-28 0 -50 -22 -50 -50c0 -110 90 -200 200 -200c28 0 50 22 50 50s-22 50 -50 50c-55 0 -100 45 -100 100c0 28 -22 50 -50 50z" />
    <glyph glyph-name="uniE059" unicode="&#xe059;" 
d="M400 800l400 -500h-800zM0 200h800v-200h-800v200z" />
    <glyph glyph-name="uniE05A" unicode="&#xe05a;" horiz-adv-x="600" 
d="M300 800l300 -300h-600zM0 300h600l-300 -300z" />
    <glyph glyph-name="uniE05B" unicode="&#xe05b;" 
d="M0 500h200v-200h-200v200zM300 500h200v-200h-200v200zM600 500h200v-200h-200v200z" />
    <glyph glyph-name="uniE05C" unicode="&#xe05c;" 
d="M0 700h800v-100l-400 -200l-400 200v100zM0 500l400 -200l400 200v-400h-800v400z" />
    <glyph glyph-name="uniE05D" unicode="&#xe05d;" 
d="M400 800l400 -200v-600h-800v600zM400 688l-300 -150v-188l300 -150l300 150v188zM200 500h400v-100l-200 -100l-200 100v100z" />
    <glyph glyph-name="uniE05E" unicode="&#xe05e;" 
d="M600 700c69 0 134 -19 191 -50l-16 -106c-49 35 -109 56 -175 56c-131 0 -240 -84 -281 -200h331l-16 -100h-334c0 -36 8 -68 19 -100h297l-16 -100h-222c55 -61 133 -100 222 -100c78 0 147 30 200 78v-122c-59 -35 -127 -56 -200 -56c-147 0 -274 82 -344 200h-256
l19 100h197c-8 32 -16 66 -16 100h-200l25 100h191c45 172 198 300 384 300z" />
    <glyph glyph-name="uniE05F" unicode="&#xe05f;" 
d="M0 700h700v-100h-700v100zM0 500h500v-100h-500v100zM0 300h800v-100h-800v100zM0 100h100v-100h-100v100zM200 100h100v-100h-100v100zM400 100h100v-100h-100v100z" />
    <glyph glyph-name="uniE060" unicode="&#xe060;" 
d="M0 800h800v-100h-800v100zM200 600h400l-200 -200zM0 200h800v-200h-800v200z" />
    <glyph glyph-name="uniE061" unicode="&#xe061;" 
d="M0 800h100v-800h-100v800zM600 800h200v-800h-200v800zM200 600l200 -200l-200 -200v400z" />
    <glyph glyph-name="uniE062" unicode="&#xe062;" 
d="M0 800h200v-800h-200v800zM700 800h100v-800h-100v800zM600 600v-400l-200 200z" />
    <glyph glyph-name="uniE063" unicode="&#xe063;" 
d="M0 800h800v-200h-800v200zM400 400l200 -200h-400zM0 100h800v-100h-800v100z" />
    <glyph glyph-name="uniE064" unicode="&#xe064;" 
d="M0 800h200v-100h-100v-600h600v100h100v-200h-800v800zM400 800h400v-400l-150 150l-250 -250l-100 100l250 250z" />
    <glyph glyph-name="uniE065" unicode="&#xe065;" 
d="M403 700c247 0 397 -300 397 -300s-150 -300 -397 -300c-253 0 -403 300 -403 300s150 300 403 300zM400 600c-110 0 -200 -90 -200 -200s90 -200 200 -200s200 90 200 200s-90 200 -200 200zM400 500c10 0 19 -3 28 -6c-16 -8 -28 -24 -28 -44c0 -28 22 -50 50 -50
c20 0 36 12 44 28c3 -9 6 -18 6 -28c0 -55 -45 -100 -100 -100s-100 45 -100 100s45 100 100 100z" />
    <glyph glyph-name="uniE066" unicode="&#xe066;" horiz-adv-x="900" 
d="M331 700h6c3 1 7 1 10 1c12 0 29 -8 37 -17l94 -93l66 65c57 57 155 57 212 0c58 -58 58 -154 0 -212l-65 -66l93 -94c10 -8 18 -25 18 -38c0 -28 -22 -50 -50 -50c-13 0 -32 9 -40 20l-62 65l-381 -381h-269v272l375 381l-63 63c-9 8 -16 24 -16 36c0 20 16 42 35 48z
M447 481l-313 -315l128 -132l316 316z" />
    <glyph glyph-name="uniE067" unicode="&#xe067;" 
d="M0 800h300v-400h400v-400h-700v800zM400 800l300 -300h-300v300z" />
    <glyph glyph-name="uniE068" unicode="&#xe068;" 
d="M200 800c0 0 200 -100 200 -300s-298 -302 -200 -500c0 0 -200 100 -200 300s300 300 200 500zM500 500c0 0 200 -100 200 -300c0 -150 -60 -200 -100 -200h-300c0 200 300 300 200 500z" />
    <glyph glyph-name="uniE069" unicode="&#xe069;" 
d="M0 800h100v-800h-100v800zM200 800h300v-100h300l-200 -203l200 -197h-400v100h-200v400z" />
    <glyph glyph-name="uniE06A" unicode="&#xe06a;" horiz-adv-x="400" 
d="M150 800h150l-100 -200h200l-150 -300h150l-300 -300l-100 300h134l66 200h-200z" />
    <glyph glyph-name="uniE06B" unicode="&#xe06b;" 
d="M0 800h300v-100h500v-100h-800v200zM0 500h800v-450c0 -28 -22 -50 -50 -50h-700c-28 0 -50 22 -50 50v450z" />
    <glyph glyph-name="uniE06C" unicode="&#xe06c;" 
d="M150 800c83 0 150 -67 150 -150c0 -66 -41 -121 -100 -141v-118c15 5 33 9 50 9h200c28 0 50 22 50 50v59c-59 20 -100 75 -100 141c0 83 67 150 150 150s150 -67 150 -150c0 -66 -41 -121 -100 -141v-59c0 -82 -68 -150 -150 -150h-200c-14 0 -25 -7 -34 -16
c50 -24 84 -74 84 -134c0 -83 -67 -150 -150 -150s-150 67 -150 150c0 66 41 121 100 141v218c-59 20 -100 75 -100 141c0 83 67 150 150 150z" />
    <glyph glyph-name="uniE06D" unicode="&#xe06d;" 
d="M0 800h400l-150 -150l150 -150l-100 -100l-150 150l-150 -150v400zM500 400l150 -150l150 150v-400h-400l150 150l-150 150z" />
    <glyph glyph-name="uniE06E" unicode="&#xe06e;" 
d="M100 800l150 -150l150 150v-400h-400l150 150l-150 150zM400 400h400l-150 -150l150 -150l-100 -100l-150 150l-150 -150v400z" />
    <glyph glyph-name="uniE06F" unicode="&#xe06f;" 
d="M400 800c221 0 400 -179 400 -400s-179 -400 -400 -400s-400 179 -400 400s179 400 400 400zM400 700c-56 0 -108 -17 -153 -44l22 -19c33 -18 13 -48 -13 -59c-30 -13 -77 10 -65 -41c13 -55 -27 -3 -47 -15c-42 -26 49 -152 31 -156l-59 34c-8 0 -13 -5 -16 -10
c1 -30 10 -57 19 -84c28 -11 77 -2 100 -25c47 -28 97 -115 75 -159c34 -13 68 -22 106 -22c101 0 193 48 247 125c3 24 -8 44 -50 44c-69 0 -156 13 -153 97c2 46 101 108 66 143c-30 30 12 39 12 66c0 37 -65 32 -69 50s20 36 41 56c-30 10 -60 19 -94 19zM631 591
c-38 -11 -94 -35 -87 -53c6 -15 52 -1 65 -13c11 -10 16 -59 44 -31l22 22v3c-11 26 -26 50 -44 72z" />
    <glyph glyph-name="uniE070" unicode="&#xe070;" 
d="M703 800l97 -100l-400 -400l-100 100l-200 -203l-100 100l300 303l100 -100zM0 100h800v-100h-800v100z" />
    <glyph glyph-name="uniE071" unicode="&#xe071;" 
d="M0 700h100v-100h-100v100zM200 700h100v-100h-100v100zM400 700h100v-100h-100v100zM600 700h100v-100h-100v100zM0 500h100v-100h-100v100zM200 500h100v-100h-100v100zM400 500h100v-100h-100v100zM600 500h100v-100h-100v100zM0 300h100v-100h-100v100zM200 300h100
v-100h-100v100zM400 300h100v-100h-100v100zM600 300h100v-100h-100v100zM0 100h100v-100h-100v100zM200 100h100v-100h-100v100zM400 100h100v-100h-100v100zM600 100h100v-100h-100v100z" />
    <glyph glyph-name="uniE072" unicode="&#xe072;" 
d="M0 800h200v-200h-200v200zM300 800h200v-200h-200v200zM600 800h200v-200h-200v200zM0 500h200v-200h-200v200zM300 500h200v-200h-200v200zM600 500h200v-200h-200v200zM0 200h200v-200h-200v200zM300 200h200v-200h-200v200zM600 200h200v-200h-200v200z" />
    <glyph glyph-name="uniE073" unicode="&#xe073;" 
d="M0 800h300v-300h-300v300zM500 800h300v-300h-300v300zM0 300h300v-300h-300v300zM500 300h300v-300h-300v300z" />
    <glyph glyph-name="uniE074" unicode="&#xe074;" 
d="M19 800h662c11 0 19 -8 19 -19v-331c0 -28 -22 -50 -50 -50h-600c-28 0 -50 22 -50 50v331c0 11 8 19 19 19zM0 19v290c16 -6 32 -9 50 -9h600c18 0 34 3 50 9v-290c0 -11 -8 -19 -19 -19h-662c-11 0 -19 8 -19 19zM550 200c-28 0 -50 -22 -50 -50s22 -50 50 -50
s50 22 50 50s-22 50 -50 50z" />
    <glyph glyph-name="uniE075" unicode="&#xe075;" 
d="M0 700h300v-100h-50c-28 0 -50 -22 -50 -50v-150h300v150c0 28 -22 50 -50 50h-50v100h300v-100h-50c-28 0 -50 -22 -50 -50v-400c0 -28 22 -50 50 -50h50v-100h-300v100h50c28 0 50 22 50 50v150h-300v-150c0 -28 22 -50 50 -50h50v-100h-300v100h50c28 0 50 22 50 50
v400c0 28 -22 50 -50 50h-50v100z" />
    <glyph glyph-name="uniE076" unicode="&#xe076;" 
d="M400 700c165 0 300 -135 300 -300v-100h50c28 0 50 -22 50 -50v-200c0 -28 -22 -50 -50 -50h-100c-28 0 -50 22 -50 50v350c0 111 -89 200 -200 200s-200 -89 -200 -200v-350c0 -28 -22 -50 -50 -50h-100c-28 0 -50 22 -50 50v200c0 28 22 50 50 50h50v100
c0 165 135 300 300 300z" />
    <glyph glyph-name="uniE077" unicode="&#xe077;" 
d="M0 500c0 109 91 200 200 200s200 -91 200 -200c0 109 91 200 200 200s200 -91 200 -200c0 -55 -23 -105 -59 -141l-341 -340l-341 340c-36 36 -59 86 -59 141z" />
    <glyph glyph-name="uniE078" unicode="&#xe078;" 
d="M400 700l400 -300l-100 3v-403h-200v200h-200v-200h-200v400h-100z" />
    <glyph glyph-name="uniE079" unicode="&#xe079;" 
d="M0 800h800v-800h-800v800zM100 700v-300l100 100l400 -400h100v100l-200 200l100 100l100 -100v300h-600z" />
    <glyph glyph-name="uniE07A" unicode="&#xe07a;" 
d="M19 800h762c11 0 19 -8 19 -19v-762c0 -11 -8 -19 -19 -19h-762c-11 0 -19 8 -19 19v762c0 11 8 19 19 19zM100 600v-300h100l100 -100h200l100 100h100v300h-600z" />
    <glyph glyph-name="uniE07B" unicode="&#xe07b;" 
d="M200 600c80 0 142 -56 200 -122c58 66 119 122 200 122c131 0 200 -101 200 -200s-69 -200 -200 -200c-81 0 -142 56 -200 122c-58 -66 -121 -122 -200 -122c-131 0 -200 101 -200 200s69 200 200 200zM200 500c-74 0 -100 -54 -100 -100s26 -100 100 -100
c42 0 88 47 134 100c-46 53 -92 100 -134 100zM600 500c-43 0 -88 -47 -134 -100c46 -53 91 -100 134 -100c74 0 100 54 100 100s-26 100 -100 100z" />
    <glyph glyph-name="uniE07C" unicode="&#xe07c;" horiz-adv-x="400" 
d="M300 800c55 0 100 -45 100 -100s-45 -100 -100 -100s-100 45 -100 100s45 100 100 100zM150 550c83 0 150 -69 150 -150c0 -66 -100 -214 -100 -250c0 -28 22 -50 50 -50s50 22 50 50h100c0 -83 -67 -150 -150 -150s-150 64 -150 150s100 222 100 250s-22 50 -50 50
s-50 -22 -50 -50h-100c0 83 67 150 150 150z" />
    <glyph glyph-name="uniE07D" unicode="&#xe07d;" 
d="M200 800h500v-100h-122c-77 -197 -156 -392 -234 -588l-6 -12h162v-100h-500v100h122c77 197 156 392 234 588l7 12h-163v100z" />
    <glyph glyph-name="uniE07E" unicode="&#xe07e;" 
d="M0 700h800v-100h-800v100zM0 500h800v-100h-800v100zM0 300h800v-100h-800v100zM100 100h600v-100h-600v100z" />
    <glyph glyph-name="uniE07F" unicode="&#xe07f;" 
d="M0 700h800v-100h-800v100zM0 500h800v-100h-800v100zM0 300h800v-100h-800v100zM0 100h600v-100h-600v100z" />
    <glyph glyph-name="uniE080" unicode="&#xe080;" 
d="M0 700h800v-100h-800v100zM0 500h800v-100h-800v100zM0 300h800v-100h-800v100zM200 100h600v-100h-600v100z" />
    <glyph glyph-name="uniE081" unicode="&#xe081;" 
d="M550 800c138 0 250 -112 250 -250s-112 -250 -250 -250c-16 0 -32 0 -47 3l-3 -3v-100h-200v-200h-300v200l303 303c-3 15 -3 31 -3 47c0 138 112 250 250 250zM600 700c-55 0 -100 -45 -100 -100s45 -100 100 -100s100 45 100 100s-45 100 -100 100z" />
    <glyph glyph-name="uniE082" unicode="&#xe082;" 
d="M134 600h516c28 0 50 -22 50 -50v-350h100v-150c0 -28 -22 -50 -50 -50h-700c-28 0 -50 22 -50 50v150h100v352c0 20 15 42 34 48zM200 500v-300h100v-100h200v100h100v300h-400z" />
    <glyph glyph-name="uniE083" unicode="&#xe083;" 
d="M0 800h400v-400h-400v400zM500 600h100v-400h-400v100h300v300zM700 400h100v-400h-400v100h300v300z" />
    <glyph glyph-name="uniE084" unicode="&#xe084;" horiz-adv-x="600" 
d="M37 544l300 150c6 4 12 7 21 7c28 0 50 -22 50 -50c0 -17 -12 -37 -27 -45l-300 -150c-8 -6 -21 -11 -31 -11c-28 0 -50 22 -50 50c0 21 16 44 37 49zM37 344l400 200c6 4 12 7 21 7c28 0 50 -22 50 -50c0 -17 -12 -37 -27 -45l-400 -200c-8 -6 -21 -11 -31 -11
c-28 0 -50 22 -50 50c0 21 16 44 37 49zM137 194l300 150c6 4 12 7 21 7c28 0 50 -22 50 -50c0 -17 -12 -37 -27 -45l-106 -56c24 -4 43 -26 43 -50c0 -28 -23 -51 -51 -51l-8 1h-200c-26 1 -48 24 -48 50c0 16 12 36 26 44zM151 -50c0 23 20 50 46 50h112
c28 0 50 -22 50 -50s-22 -50 -50 -50h-100l-8 -1c-28 0 -50 23 -50 51z" />
    <glyph glyph-name="uniE085" unicode="&#xe085;" 
d="M199 800h100v-200h-200v100h100v100zM586 797h1c18 1 38 1 56 -3c36 -8 69 -26 97 -54c78 -78 78 -203 0 -281l-150 -150c-8 -13 -28 -24 -43 -24c-28 0 -50 22 -50 50c0 15 11 35 24 43l150 150c40 40 39 105 0 144c-41 41 -110 34 -144 0l-44 -44
c-8 -13 -27 -24 -42 -24c-28 0 -50 22 -50 50c0 15 11 35 24 43l43 44c32 33 72 53 128 56zM58 340l150 150c4 5 14 16 22 16h3l8 1c28 0 50 -22 50 -50c0 -11 -6 -27 -14 -35l-150 -150c-40 -40 -39 -105 0 -144c41 -41 110 -34 144 0l44 44c8 13 27 24 42 24
c28 0 50 -22 50 -50c0 -15 -11 -35 -24 -43l-43 -44c-22 -22 -48 -37 -75 -47c-70 -25 -151 -9 -207 47c-78 78 -78 203 0 281zM499 200h200v-100h-100v-100h-100v200z" />
    <glyph glyph-name="uniE086" unicode="&#xe086;" 
d="M586 797c18 1 39 1 57 -3c36 -8 69 -26 97 -54c78 -78 78 -203 0 -281l-150 -150c-62 -62 -132 -81 -182 -78s-69 17 -84 25s-26 27 -26 44c0 28 22 51 50 51c8 0 19 -3 26 -7c0 0 15 -11 41 -13s62 3 106 47l150 150c40 40 39 105 0 144c-41 41 -110 34 -144 0
c-8 -13 -28 -24 -43 -24c-28 0 -50 22 -50 50c0 15 11 35 24 43c32 33 72 53 128 56zM386 566c50 -2 64 -17 85 -22s37 -28 37 -49c0 -28 -22 -50 -50 -50c-10 0 -23 5 -31 11c0 0 -19 9 -47 10s-63 -4 -103 -44l-150 -150c-40 -40 -39 -105 0 -144c41 -41 110 -34 144 0
c8 13 27 24 42 24c28 0 50 -22 50 -50c0 -15 -10 -35 -23 -43c-22 -22 -48 -37 -75 -47c-70 -25 -151 -9 -207 47c-78 78 -78 203 0 281l150 150c60 60 128 78 178 76z" />
    <glyph glyph-name="uniE087" unicode="&#xe087;" 
d="M0 700h300v-300h-300v300zM400 700h400v-100h-400v100zM400 500h300v-100h-300v100zM0 300h300v-300h-300v300zM400 300h400v-100h-400v100zM400 100h300v-100h-300v100z" />
    <glyph glyph-name="uniE088" unicode="&#xe088;" 
d="M50 700c28 0 50 -22 50 -50s-22 -50 -50 -50s-50 22 -50 50s22 50 50 50zM200 700h600v-100h-600v100zM50 500c28 0 50 -22 50 -50s-22 -50 -50 -50s-50 22 -50 50s22 50 50 50zM200 500h600v-100h-600v100zM50 300c28 0 50 -22 50 -50s-22 -50 -50 -50s-50 22 -50 50
s22 50 50 50zM200 300h600v-100h-600v100zM50 100c28 0 50 -22 50 -50s-22 -50 -50 -50s-50 22 -50 50s22 50 50 50zM200 100h600v-100h-600v100z" />
    <glyph glyph-name="uniE089" unicode="&#xe089;" 
d="M800 800l-400 -800l-100 300l-300 100z" />
    <glyph glyph-name="uniE08A" unicode="&#xe08a;" horiz-adv-x="600" 
d="M300 700c110 0 200 -90 200 -200v-100h100v-400h-600v400h100v100c0 110 90 200 200 200zM300 600c-56 0 -100 -44 -100 -100v-100h200v100c0 56 -44 100 -100 100z" />
    <glyph glyph-name="uniE08B" unicode="&#xe08b;" horiz-adv-x="600" 
d="M300 800c110 0 200 -90 200 -200v-200h100v-400h-600v400h400v200c0 56 -44 100 -100 100s-100 -44 -100 -100h-100c0 110 90 200 200 200z" />
    <glyph glyph-name="uniE08C" unicode="&#xe08c;" 
d="M400 700v-100c-111 0 -200 -89 -200 -200h100l-150 -200l-150 200h100c0 165 135 300 300 300zM650 600l150 -200h-100c0 -165 -135 -300 -300 -300v100c111 0 200 89 200 200h-100z" />
    <glyph glyph-name="uniE08D" unicode="&#xe08d;" 
d="M100 800h600v-300h100l-150 -250l-150 250h100v200h-400v-100h-100v200zM150 550l150 -250h-100v-200h400v100h100v-200h-600v300h-100z" />
    <glyph glyph-name="uniE08E" unicode="&#xe08e;" 
d="M600 700l200 -150l-200 -150v100h-500v-100h-100v100c0 55 45 100 100 100h500v100zM200 300v-100h500v100h100v-100c0 -55 -45 -100 -100 -100h-500v-100l-200 150z" />
    <glyph glyph-name="uniE08F" unicode="&#xe08f;" horiz-adv-x="900" 
d="M350 800c193 0 350 -157 350 -350c0 -60 -17 -117 -44 -166c5 -3 12 -8 16 -12l100 -100c16 -16 30 -49 30 -72c0 -56 -46 -102 -102 -102c-23 0 -56 14 -72 30l-100 100c-4 3 -9 9 -12 13c-49 -26 -107 -41 -166 -41c-193 0 -350 157 -350 350s157 350 350 350zM350 200
c142 0 250 108 250 250c0 139 -111 250 -250 250s-250 -111 -250 -250s111 -250 250 -250z" />
    <glyph glyph-name="uniE090" unicode="&#xe090;" horiz-adv-x="600" 
d="M300 800c166 0 300 -134 300 -300c0 -200 -300 -500 -300 -500s-300 300 -300 500c0 166 134 300 300 300zM300 700c-110 0 -200 -90 -200 -200s90 -200 200 -200s200 90 200 200s-90 200 -200 200z" />
    <glyph glyph-name="uniE091" unicode="&#xe091;" horiz-adv-x="900" 
d="M0 800h800v-541c1 -3 1 -8 1 -11s0 -7 -1 -10v-238h-800v800zM495 250c0 26 22 50 50 50h155v400h-600v-600h600v100h-155c-28 0 -50 22 -50 50zM350 600c83 0 150 -67 150 -150c0 -100 -150 -250 -150 -250s-150 150 -150 250c0 83 67 150 150 150zM350 500
c-28 0 -50 -22 -50 -50s22 -50 50 -50s50 22 50 50s-22 50 -50 50z" />
    <glyph glyph-name="uniE092" unicode="&#xe092;" horiz-adv-x="600" 
d="M0 700h200v-600h-200v600zM400 700h200v-600h-200v600z" />
    <glyph glyph-name="uniE093" unicode="&#xe093;" horiz-adv-x="600" 
d="M0 700l600 -300l-600 -300v600z" />
    <glyph glyph-name="uniE094" unicode="&#xe094;" horiz-adv-x="600" 
d="M300 700c166 0 300 -134 300 -300s-134 -300 -300 -300s-300 134 -300 300s134 300 300 300z" />
    <glyph glyph-name="uniE095" unicode="&#xe095;" 
d="M400 700v-600l-400 300zM400 400l400 300v-600z" />
    <glyph glyph-name="uniE096" unicode="&#xe096;" 
d="M0 700l400 -300l-400 -300v600zM400 100v600l400 -300z" />
    <glyph glyph-name="uniE097" unicode="&#xe097;" 
d="M0 700h200v-600h-200v600zM200 400l500 300v-600z" />
    <glyph glyph-name="uniE098" unicode="&#xe098;" 
d="M0 700l500 -300l-500 -300v600zM500 100v600h200v-600h-200z" />
    <glyph glyph-name="uniE099" unicode="&#xe099;" horiz-adv-x="600" 
d="M0 700h600v-600h-600v600z" />
    <glyph glyph-name="uniE09A" unicode="&#xe09a;" 
d="M200 800h400v-200h200v-400h-200v-200h-400v200h-200v400h200v200z" />
    <glyph glyph-name="uniE09B" unicode="&#xe09b;" 
d="M0 700h800v-100h-800v100zM0 403h800v-100h-800v100zM0 103h800v-100h-800v100z" />
    <glyph glyph-name="uniE09C" unicode="&#xe09c;" horiz-adv-x="600" 
d="M278 700c7 2 13 4 22 4c55 0 100 -45 100 -100v-204c0 -55 -45 -100 -100 -100s-100 45 -100 100v202c0 44 35 88 78 98zM34 500h7c3 0 6 1 9 1c28 0 50 -22 50 -50v-51c0 -111 89 -200 200 -200s200 89 200 200v50c0 28 22 50 50 50s50 -22 50 -50v-50
c0 -148 -109 -270 -250 -294v-106h50c55 0 100 -45 100 -100h-400c0 55 45 100 100 100h50v106c-141 24 -250 146 -250 294v52c0 20 15 42 34 48z" />
    <glyph glyph-name="uniE09D" unicode="&#xe09d;" 
d="M0 500h800v-200h-800v200z" />
    <glyph glyph-name="uniE09E" unicode="&#xe09e;" 
d="M34 700h716c28 0 50 -22 50 -50v-500c0 -28 -22 -50 -50 -50h-250v-100h100c55 0 100 -45 100 -100h-600c0 55 45 100 100 100h100v100h-250c-28 0 -50 22 -50 50v502c0 20 15 42 34 48zM100 600v-400h600v400h-600z" />
    <glyph glyph-name="uniE09F" unicode="&#xe09f;" 
d="M272 700c-14 -40 -22 -83 -22 -128c0 -221 179 -400 400 -400c45 0 88 8 128 22c-53 -158 -202 -272 -378 -272c-221 0 -400 179 -400 400c0 176 114 325 272 378z" />
    <glyph glyph-name="uniE0A0" unicode="&#xe0a0;" 
d="M350 700l150 -150h-100v-150h150v100l150 -150l-150 -150v100h-150v-150h100l-150 -150l-150 150h100v150h-150v-100l-150 150l150 150v-100h150v150h-100z" />
    <glyph glyph-name="uniE0A1" unicode="&#xe0a1;" 
d="M800 800v-550c0 -83 -67 -150 -150 -150s-150 67 -150 150s67 150 150 150c17 0 35 -4 50 -9v206c-201 -6 -327 -27 -400 -50v-397c0 -83 -67 -150 -150 -150s-150 67 -150 150s67 150 150 150c17 0 35 -4 50 -9v409s100 100 600 100z" />
    <glyph glyph-name="uniE0A2" unicode="&#xe0a2;" horiz-adv-x="700" 
d="M499 700c51 0 102 -20 141 -59c78 -78 78 -203 0 -281l-250 -244c-48 -48 -127 -48 -175 0s-48 127 0 175l96 97l69 -69l-90 -94l-7 -3c-10 -10 -10 -28 0 -38s28 -10 38 0l250 247c37 40 39 102 0 141s-104 40 -144 0l-278 -275c-66 -69 -68 -179 0 -247
c69 -69 181 -69 250 0l9 12l116 113l69 -69l-125 -125c-107 -107 -281 -107 -388 0s-107 281 0 388l278 272c39 39 90 59 141 59z" />
    <glyph glyph-name="uniE0A3" unicode="&#xe0a3;" 
d="M600 800l200 -200l-100 -100l-200 200zM400 600l200 -200l-400 -400h-200v200z" />
    <glyph glyph-name="uniE0A4" unicode="&#xe0a4;" 
d="M550 800c83 0 150 -90 150 -200s-67 -200 -150 -200c-22 0 -40 8 -59 19c6 26 9 52 9 81c0 84 -27 158 -72 212c27 52 71 88 122 88zM250 700c83 0 150 -90 150 -200s-67 -200 -150 -200s-150 90 -150 200s67 200 150 200zM725 384c44 -22 75 -66 75 -118v-166h-200v66
c0 50 -17 96 -44 134c66 2 126 33 169 84zM75 284c45 -53 106 -84 175 -84s130 31 175 84c44 -22 75 -66 75 -118v-166h-500v166c0 52 31 96 75 118z" />
    <glyph glyph-name="uniE0A5" unicode="&#xe0a5;" 
d="M400 800c110 0 200 -112 200 -250s-90 -250 -200 -250s-200 112 -200 250s90 250 200 250zM191 300c54 -61 128 -100 209 -100s155 39 209 100c106 -5 191 -92 191 -200v-100h-800v100c0 108 85 195 191 200z" />
    <glyph glyph-name="uniE0A6" unicode="&#xe0a6;" horiz-adv-x="600" 
d="M19 800h462c11 0 19 -8 19 -19v-762c0 -11 -8 -19 -19 -19h-462c-11 0 -19 8 -19 19v762c0 11 8 19 19 19zM100 700v-500h300v500h-300zM250 150c-28 0 -50 -22 -50 -50s22 -50 50 -50s50 22 50 50s-22 50 -50 50z" />
    <glyph glyph-name="uniE0A7" unicode="&#xe0a7;" 
d="M350 800c17 0 34 -1 50 -3v-397l-297 297c63 64 150 103 247 103zM500 353v341c169 -25 300 -168 300 -344c0 -193 -157 -350 -350 -350c-85 0 -161 31 -222 81zM91 562l237 -234l-212 -212c-70 55 -116 138 -116 234c0 84 35 158 91 212z" />
    <glyph glyph-name="uniE0A8" unicode="&#xe0a8;" 
d="M92 650c0 23 20 50 46 50h412c28 0 50 -22 50 -50s-22 -50 -50 -50h-50v-200h100c55 0 100 -45 100 -100h-300v-300l-56 -100l-44 100v300h-300c0 55 45 100 100 100h100v200h-50l-8 -1c-28 0 -50 23 -50 51z" />
    <glyph glyph-name="uniE0A9" unicode="&#xe0a9;" 
d="M400 800c221 0 400 -179 400 -400s-179 -400 -400 -400s-400 179 -400 400s179 400 400 400zM300 600v-400l300 200z" />
    <glyph glyph-name="uniE0AB" unicode="&#xe0ab;" 
d="M300 800h100v-400h-100v400zM172 656l62 -78l-40 -31c-58 -46 -94 -117 -94 -197c0 -139 111 -250 250 -250s250 111 250 250c0 80 -39 151 -97 197l-37 31l62 78l38 -31c82 -64 134 -164 134 -275c0 -193 -157 -350 -350 -350s-350 157 -350 350c0 111 53 211 134 275z
" />
    <glyph glyph-name="uniE0AC" unicode="&#xe0ac;" 
d="M200 800h400v-200h-400v200zM9 500h782c6 0 9 -3 9 -9v-282c0 -6 -3 -9 -9 -9h-91v200h-600v-200h-91c-6 0 -9 3 -9 9v282c0 6 3 9 9 9zM200 300h400v-300h-400v300z" />
    <glyph glyph-name="uniE0AD" unicode="&#xe0ad;" 
d="M0 700h100v-700h-100v700zM700 700h100v-700h-100v700zM200 600h200v-100h-200v100zM300 400h200v-100h-200v100zM400 200h200v-100h-200v100z" />
    <glyph glyph-name="uniE0AF" unicode="&#xe0af;" 
d="M200 600c0 57 43 100 100 100s100 -43 100 -100c0 -28 -18 -48 -28 -72c-3 -6 -3 -16 -3 -28h231v-231c12 0 22 0 28 3c24 10 44 28 72 28c57 0 100 -43 100 -100s-43 -100 -100 -100c-28 0 -48 18 -72 28c-6 3 -16 3 -28 3v-231h-231c0 12 0 22 3 28c10 24 28 44 28 72
c0 57 -43 100 -100 100s-100 -43 -100 -100c0 -28 18 -48 28 -72c3 -6 3 -16 3 -28h-231v600h231c0 12 0 22 -3 28c-10 24 -28 44 -28 72z" />
    <glyph glyph-name="uniE0B0" unicode="&#xe0b0;" horiz-adv-x="500" 
d="M247 700c84 0 148 -20 191 -59s59 -93 59 -141c0 -117 -69 -181 -119 -225s-81 -67 -81 -150v-25h-100v25c0 117 65 181 115 225s85 67 85 150c0 25 -8 48 -28 66s-56 34 -122 34s-97 -18 -116 -37s-27 -43 -31 -69l-100 12c5 38 19 88 59 128s103 66 188 66zM197 0h100
v-100h-100v100z" />
    <glyph glyph-name="uniE0B1" unicode="&#xe0b1;" 
d="M450 800c138 0 250 -112 250 -250v-50c58 -21 100 -85 100 -150c0 -69 -48 -127 -112 -144c-22 55 -75 94 -138 94c-20 0 -39 -5 -56 -12c-17 64 -75 112 -144 112s-127 -48 -144 -112c-17 7 -36 12 -56 12c-37 0 -71 -12 -97 -34c-33 36 -53 82 -53 134
c0 110 90 200 200 200c23 114 129 200 250 200zM334 300h7c3 0 6 1 9 1c28 0 50 -22 50 -50v-201c0 -28 -22 -50 -50 -50s-50 22 -50 50v202c0 20 15 42 34 48zM134 200h7c3 0 6 1 9 1c28 0 50 -22 50 -50v-101c0 -28 -22 -50 -50 -50s-50 22 -50 50v102c0 20 15 42 34 48z
M534 200h7c3 0 6 1 9 1c28 0 50 -22 50 -50v-101c0 -28 -22 -50 -50 -50s-50 22 -50 50v102c0 20 15 42 34 48z" />
    <glyph glyph-name="uniE0B2" unicode="&#xe0b2;" 
d="M600 800l200 -150l-200 -150v100h-50l-153 -191l175 -206l6 -3h22v100l200 -150l-200 -150v100h-25c-35 0 -56 12 -78 38l-166 190l-153 -190c-22 -27 -43 -38 -78 -38h-100v100h100l166 206l-163 191l-3 3h-100v100h100c34 0 56 -12 78 -38l153 -178l141 178
c22 27 43 38 78 38h50v100z" />
    <glyph glyph-name="uniE0B3" unicode="&#xe0b3;" 
d="M400 800c110 0 209 -47 281 -119l119 119v-300h-300l109 109c-54 55 -126 91 -209 91c-166 0 -300 -134 -300 -300s134 -300 300 -300c83 0 158 34 212 88l72 -72c-72 -72 -174 -116 -284 -116c-220 0 -400 180 -400 400s180 400 400 400z" />
    <glyph glyph-name="uniE0B4" unicode="&#xe0b4;" 
d="M400 800h400v-400l-166 166l-400 -400l166 -166h-400v400l166 -166l400 400z" />
    <glyph glyph-name="uniE0B5" unicode="&#xe0b5;" horiz-adv-x="600" 
d="M250 800l250 -300h-200v-200h200l-250 -300l-250 300h200v200h-200z" />
    <glyph glyph-name="uniE0B6" unicode="&#xe0b6;" 
d="M300 600v-200h200v200l300 -250l-300 -250v200h-200v-200l-300 250z" />
    <glyph glyph-name="uniE0B7" unicode="&#xe0b7;" 
d="M0 600v200c441 0 800 -359 800 -800h-200c0 333 -267 600 -600 600zM0 300v200c275 0 500 -225 500 -500h-200c0 167 -133 300 -300 300zM0 0v200c110 0 200 -90 200 -200h-200z" />
    <glyph glyph-name="uniE0B8" unicode="&#xe0b8;" 
d="M100 700v100c386 0 700 -314 700 -700h-100c0 332 -268 600 -600 600zM100 500v100c276 0 500 -224 500 -500h-100c0 222 -178 400 -400 400zM100 300v100c165 0 300 -135 300 -300h-100c0 111 -89 200 -200 200zM100 200c55 0 100 -45 100 -100s-45 -100 -100 -100
s-100 45 -100 100s45 100 100 100z" />
    <glyph glyph-name="uniE0B9" unicode="&#xe0b9;" 
d="M300 800h400c55 0 100 -45 100 -100v-200h-400v150c0 28 -22 50 -50 50s-50 -22 -50 -50v-250h400v-300c0 -55 -45 -100 -100 -100h-500c-55 0 -100 45 -100 100v200h100v-150c0 -28 22 -50 50 -50s50 22 50 50v550c0 55 45 100 100 100z" />
    <glyph glyph-name="uniE0BA" unicode="&#xe0ba;" 
d="M75 700h225v-100h-200v-500h400v100h100v-125c0 -41 -34 -75 -75 -75h-450c-41 0 -75 34 -75 75v550c0 41 34 75 75 75zM600 700l200 -200l-200 -200v100h-200c-94 0 -173 -65 -194 -153c23 199 189 353 394 353v100z" />
    <glyph glyph-name="uniE0BB" unicode="&#xe0bb;" 
d="M500 700l300 -284l-300 -316v200h-100c-200 0 -348 -102 -400 -300c0 295 100 500 500 500v200z" />
    <glyph glyph-name="uniE0BC" unicode="&#xe0bc;" 
d="M381 791l19 9l19 -9c127 -53 253 -108 381 -160v-31c0 -166 -67 -313 -147 -419c-40 -53 -83 -97 -125 -128s-82 -53 -128 -53s-86 22 -128 53s-85 75 -125 128c-80 107 -147 253 -147 419v31c128 52 254 107 381 160zM400 100v591l-294 -122c8 -126 58 -243 122 -328
c35 -46 73 -86 106 -110s62 -31 66 -31z" />
    <glyph glyph-name="uniE0BD" unicode="&#xe0bd;" 
d="M600 800h100v-800h-100v800zM400 700h100v-700h-100v700zM200 500h100v-500h-100v500zM0 300h100v-300h-100v300z" />
    <glyph glyph-name="uniE0BE" unicode="&#xe0be;" 
d="M300 800h100v-200h200l100 -100l-100 -100h-200v-400h-100v500h-200l-100 100l100 100h200v100z" />
    <glyph glyph-name="uniE0BF" unicode="&#xe0bf;" 
d="M200 800h100v-600h200l-250 -200l-250 200h200v600zM400 800h200v-100h-200v100zM400 600h300v-100h-300v100zM400 400h400v-100h-400v100z" />
    <glyph glyph-name="uniE0C0" unicode="&#xe0c0;" 
d="M200 800h100v-600h200l-250 -200l-250 200h200v600zM400 800h400v-100h-400v100zM400 600h300v-100h-300v100zM400 400h200v-100h-200v100z" />
    <glyph glyph-name="uniE0C1" unicode="&#xe0c1;" 
d="M75 700h650c41 0 75 -34 75 -75v-550c0 -41 -34 -75 -75 -75h-650c-41 0 -75 34 -75 75v550c0 41 34 75 75 75zM100 600v-100h100v100h-100zM300 600v-100h400v100h-400zM100 400v-100h100v100h-100zM300 400v-100h400v100h-400zM100 200v-100h100v100h-100zM300 200
v-100h400v100h-400z" />
    <glyph glyph-name="uniE0C2" unicode="&#xe0c2;" 
d="M400 800l100 -300h300l-250 -200l100 -300l-250 200l-250 -200l100 300l-250 200h300z" />
    <glyph glyph-name="uniE0C3" unicode="&#xe0c3;" 
d="M400 800c28 0 50 -22 50 -50s-22 -50 -50 -50s-50 22 -50 50s22 50 50 50zM150 700c28 0 50 -22 50 -50s-22 -50 -50 -50s-50 22 -50 50s22 50 50 50zM650 700c28 0 50 -22 50 -50s-22 -50 -50 -50s-50 22 -50 50s22 50 50 50zM400 600c110 0 200 -90 200 -200
s-90 -200 -200 -200s-200 90 -200 200s90 200 200 200zM50 450c28 0 50 -22 50 -50s-22 -50 -50 -50s-50 22 -50 50s22 50 50 50zM750 450c28 0 50 -22 50 -50s-22 -50 -50 -50s-50 22 -50 50s22 50 50 50zM150 200c28 0 50 -22 50 -50s-22 -50 -50 -50s-50 22 -50 50
s22 50 50 50zM650 200c28 0 50 -22 50 -50s-22 -50 -50 -50s-50 22 -50 50s22 50 50 50zM400 100c28 0 50 -22 50 -50s-22 -50 -50 -50s-50 22 -50 50s22 50 50 50z" />
    <glyph glyph-name="uniE0C4" unicode="&#xe0c4;" 
d="M34 800h632c18 0 34 -16 34 -34v-732c0 -18 -16 -34 -34 -34h-632c-18 0 -34 16 -34 34v732c0 18 16 34 34 34zM100 700v-500h500v500h-500zM350 150c-38 0 -63 -42 -44 -75s69 -33 88 0s-6 75 -44 75z" />
    <glyph glyph-name="uniE0C5" unicode="&#xe0c5;" 
d="M0 800h300l500 -500l-300 -300l-500 500v300zM200 700c-55 0 -100 -45 -100 -100s45 -100 100 -100s100 45 100 100s-45 100 -100 100z" />
    <glyph glyph-name="uniE0C6" unicode="&#xe0c6;" 
d="M0 600h200l300 -300l-200 -200l-300 300v200zM340 600h160l300 -300l-200 -200l-78 78l119 122zM150 500c-28 0 -50 -22 -50 -50s22 -50 50 -50s50 22 50 50s-22 50 -50 50z" />
    <glyph glyph-name="uniE0C7" unicode="&#xe0c7;" 
d="M400 800c220 0 400 -180 400 -400s-180 -400 -400 -400s-400 180 -400 400s180 400 400 400zM400 700c-166 0 -300 -134 -300 -300s134 -300 300 -300s300 134 300 300s-134 300 -300 300zM400 600c110 0 200 -90 200 -200s-90 -200 -200 -200s-200 90 -200 200
s90 200 200 200zM400 500c-56 0 -100 -44 -100 -100s44 -100 100 -100s100 44 100 100s-44 100 -100 100z" />
    <glyph glyph-name="uniE0C8" unicode="&#xe0c8;" 
d="M0 700h559l-100 -100h-359v-500h500v159l100 100v-359h-700v700zM700 700l100 -100l-400 -400l-200 200l100 100l100 -100z" />
    <glyph glyph-name="uniE0C9" unicode="&#xe0c9;" 
d="M9 800h782c6 0 9 -3 9 -9v-782c0 -6 -3 -9 -9 -9h-782c-6 0 -9 3 -9 9v782c0 6 3 9 9 9zM150 722l-72 -72l100 -100l-100 -100l72 -72l172 172zM400 500v-100h300v100h-300z" />
    <glyph glyph-name="uniE0CA" unicode="&#xe0ca;" 
d="M0 800h800v-200h-50c0 55 -45 100 -100 100h-150v-550c0 -28 22 -50 50 -50h50v-100h-400v100h50c28 0 50 22 50 50v550h-150c-55 0 -100 -45 -100 -100h-50v200z" />
    <glyph glyph-name="uniE0CB" unicode="&#xe0cb;" 
d="M0 700h100v-400h-100v400zM200 700h350c21 0 39 -13 47 -31c0 0 103 -291 103 -319s-22 -50 -50 -50h-150c-28 0 -50 -25 -50 -50s39 -158 47 -184s-5 -55 -31 -63s-52 5 -66 31s-109 219 -128 238s-44 28 -72 28v400z" />
    <glyph glyph-name="uniE0CC" unicode="&#xe0cc;" 
d="M400 666c10 19 28 32 47 34l19 -3c26 -8 39 -37 31 -63s-47 -159 -47 -184s22 -50 50 -50h150c28 0 50 -22 50 -50s-103 -319 -103 -319c-8 -18 -26 -31 -47 -31h-350v400c28 0 53 9 72 28s114 212 128 238zM0 400h100v-400h-100v400z" />
    <glyph glyph-name="uniE0CD" unicode="&#xe0cd;" 
d="M200 700h300v-100h-100v-6c25 -4 50 -8 72 -16l-34 -94c-28 11 -58 16 -88 16c-139 0 -250 -111 -250 -250s111 -250 250 -250s250 111 250 250c0 31 -5 60 -16 88l91 37c14 -38 25 -81 25 -125c0 -193 -157 -350 -350 -350s-350 157 -350 350c0 176 130 323 300 347v3
h-100v100zM700 584c0 0 -296 -348 -316 -368s-48 -20 -68 0s-20 48 0 68s384 300 384 300z" />
    <glyph glyph-name="uniE0CE" unicode="&#xe0ce;" 
d="M600 700l200 -150l-200 -150v100h-600v100h600v100zM200 300v-100h600v-100h-600v-100l-200 150z" />
    <glyph glyph-name="uniE0CF" unicode="&#xe0cf;" 
d="M300 800h100c55 0 100 -45 100 -100h100c55 0 100 -45 100 -100h-700c0 55 45 100 100 100h100c0 55 45 100 100 100zM100 500h100v-350c0 -28 22 -50 50 -50s50 22 50 50v350h100v-350c0 -28 22 -50 50 -50s50 22 50 50v350h100v-481c0 -11 -8 -19 -19 -19h-462
c-11 0 -19 8 -19 19v481z" />
    <glyph glyph-name="uniE0D0" unicode="&#xe0d0;" 
d="M100 800h200v-400c0 -55 45 -100 100 -100s100 45 100 100v400h100v-400c0 -110 -90 -200 -200 -200h-50c-138 0 -250 90 -250 200v400zM0 100h700v-100h-700v100z" />
    <glyph glyph-name="uniE0D1" unicode="&#xe0d1;" 
d="M9 700h182c6 0 9 -3 9 -9v-482c0 -6 -3 -9 -9 -9h-182c-6 0 -9 3 -9 9v482c0 6 3 9 9 9zM609 700h182c6 0 9 -3 9 -9v-482c0 -6 -3 -9 -9 -9h-182c-6 0 -9 3 -9 9v482c0 6 3 9 9 9zM309 500h182c6 0 9 -3 9 -9v-282c0 -6 -3 -9 -9 -9h-182c-6 0 -9 3 -9 9v282
c0 6 3 9 9 9zM0 100h800v-100h-800v100z" />
    <glyph glyph-name="uniE0D2" unicode="&#xe0d2;" 
d="M10 700h181c6 0 9 -3 9 -9v-191h-200v191c0 6 4 9 10 9zM610 700h181c6 0 9 -3 9 -9v-191h-200v191c0 6 5 9 10 9zM310 600h181c6 0 9 -3 9 -9v-91h-200v91c0 6 4 9 10 9zM0 400h800v-100h-800v100zM0 200h200v-191c0 -6 -3 -9 -9 -9h-182c-6 0 -9 3 -9 9v191zM300 200
h200v-91c0 -6 -3 -9 -9 -9h-181c-6 0 -10 3 -10 9v91zM600 200h200v-191c0 -6 -3 -9 -9 -9h-181c-6 0 -10 3 -10 9v191z" />
    <glyph glyph-name="uniE0D3" unicode="&#xe0d3;" 
d="M0 700h800v-100h-800v100zM9 500h182c6 0 9 -3 9 -9v-482c0 -6 -3 -9 -9 -9h-182c-6 0 -9 3 -9 9v482c0 6 3 9 9 9zM309 500h182c6 0 9 -3 9 -9v-282c0 -6 -3 -9 -9 -9h-182c-6 0 -9 3 -9 9v282c0 6 3 9 9 9zM609 500h182c6 0 9 -3 9 -9v-482c0 -6 -3 -9 -9 -9h-182
c-6 0 -9 3 -9 9v482c0 6 3 9 9 9z" />
    <glyph glyph-name="uniE0D4" unicode="&#xe0d4;" 
d="M50 600h500c28 0 50 -22 50 -50v-150l100 100h100v-300h-100l-100 100v-150c0 -28 -22 -50 -50 -50h-500c-28 0 -50 22 -50 50v400c0 28 22 50 50 50z" />
    <glyph glyph-name="uniE0D5" unicode="&#xe0d5;" 
d="M334 800h66v-800h-66l-134 200h-200v400h200zM500 600v100c26 0 52 -4 75 -10c130 -33 225 -150 225 -290s-95 -258 -225 -291h-3c-23 -6 -47 -9 -72 -9v100c17 0 34 2 50 6c86 22 150 100 150 194s-64 172 -150 194c-16 4 -33 6 -50 6zM500 500l25 -3
c44 -11 75 -51 75 -97s-32 -86 -75 -97l-25 -3v200z" />
    <glyph glyph-name="uniE0D6" unicode="&#xe0d6;" horiz-adv-x="600" 
d="M334 800h66v-800h-66l-134 200h-200v400h200zM500 500l25 -3c44 -11 75 -51 75 -97s-32 -86 -75 -97l-25 -3v200z" />
    <glyph glyph-name="uniE0D7" unicode="&#xe0d7;" horiz-adv-x="400" 
d="M334 800h66v-800h-66l-134 200h-200v400h200z" />
    <glyph glyph-name="uniE0D8" unicode="&#xe0d8;" 
d="M309 800h82c6 0 10 -4 12 -9l294 -682l3 -19v-81c0 -6 -3 -9 -9 -9h-682c-6 0 -9 3 -9 9v81l3 19l294 682c2 5 6 9 12 9zM300 500v-200h100v200h-100zM300 200v-100h100v100h-100z" />
    <glyph glyph-name="uniE0D9" unicode="&#xe0d9;" 
d="M375 800c138 0 269 -39 378 -109l-53 -82c-93 60 -205 91 -325 91c-119 0 -229 -32 -322 -91l-53 82c109 70 237 109 375 109zM375 500c78 0 154 -23 216 -62l-53 -85c-46 30 -104 47 -163 47c-60 0 -112 -17 -159 -47l-54 85c62 40 134 62 213 62zM375 200
c55 0 100 -45 100 -100s-45 -100 -100 -100s-100 45 -100 100s45 100 100 100z" />
    <glyph glyph-name="uniE0DA" unicode="&#xe0da;" horiz-adv-x="900" 
d="M551 800c16 0 32 0 47 -3l-97 -97v-200h200l97 97c3 -15 3 -31 3 -47c0 -138 -112 -250 -250 -250c-32 0 -62 8 -90 19l-288 -291c-20 -20 -46 -28 -72 -28s-52 8 -72 28c-39 39 -39 105 0 144l291 287c-11 28 -19 59 -19 91c0 138 112 250 250 250zM101 150
c-28 0 -50 -22 -50 -50s22 -50 50 -50s50 22 50 50s-22 50 -50 50z" />
    <glyph glyph-name="uniE0DB" unicode="&#xe0db;" 
d="M0 559l141 141c84 -84 169 -167 253 -250c82 83 167 165 247 250l143 -141l-253 -253c84 -82 167 -166 253 -247l-143 -143c-81 86 -165 169 -247 253l-253 -253l-141 143c85 80 167 164 250 247c-83 84 -166 169 -250 253z" />
    <glyph glyph-name="uniE0DC" unicode="&#xe0dc;" 
d="M0 800h100l231 -300h38l231 300h100l-225 -300h225v-100h-300v-100h300v-100h-300v-200h-100v200h-300v100h300v100h-300v100h225z" />
    <glyph glyph-name="uniE0DD" unicode="&#xe0dd;" horiz-adv-x="900" 
d="M350 800c193 0 350 -157 350 -350c0 -61 -17 -119 -44 -169c4 -2 10 -6 13 -9l103 -100c16 -16 30 -49 30 -72c0 -56 -46 -102 -102 -102c-23 0 -56 14 -72 30l-100 103c-3 3 -7 9 -9 13c-50 -28 -108 -44 -169 -44c-193 0 -350 157 -350 350s157 350 350 350zM350 700
c-139 0 -250 -111 -250 -250s111 -250 250 -250c62 0 119 23 163 60c7 11 19 25 31 31l3 3c34 43 53 97 53 156c0 139 -111 250 -250 250zM300 600h100v-100h100v-100h-100v-100h-100v100h-100v100h100v100z" />
    <glyph glyph-name="uniE0DE" unicode="&#xe0de;" horiz-adv-x="900" 
d="M350 800c193 0 350 -157 350 -350c0 -61 -17 -119 -44 -169c4 -2 10 -6 13 -9l103 -100c16 -16 30 -49 30 -72c0 -56 -46 -102 -102 -102c-23 0 -56 14 -72 30l-100 103c-3 3 -7 9 -9 13c-50 -28 -108 -44 -169 -44c-193 0 -350 157 -350 350s157 350 350 350zM350 700
c-139 0 -250 -111 -250 -250s111 -250 250 -250c62 0 119 23 163 60c7 11 19 25 31 31l3 3c34 43 53 97 53 156c0 139 -111 250 -250 250zM200 500h300v-100h-300v100z" />
    <glyph glyph-name="uniEADA" unicode="&#xeada;" horiz-adv-x="923" 
d="M523 689c25 12 45 30 60 53s22 48 22 76c0 26 -6 50 -19 72s-31 40 -53 53s-46 19 -71 19c-26 0 -50 -6 -72 -19s-39 -31 -52 -53s-20 -46 -20 -72c0 -28 8 -53 23 -76s34 -41 59 -53h-122c-21 0 -39 -6 -55 -19c-17 -13 -27 -29 -32 -49l-131 -551c-1 -6 -3 -13 -6 -20
c-2 -6 -2 -9 -1 -10s5 -2 14 -2h789c9 0 14 1 15 2s1 4 -2 10c-3 7 -5 14 -6 20l-130 551c-5 20 -16 36 -32 49c-17 13 -35 19 -56 19h-122zM527 818c0 -18 -6 -33 -19 -46s-28 -19 -46 -19c-19 0 -34 6 -47 19s-19 28 -19 47c0 18 6 33 19 46s28 19 47 19
c18 0 33 -6 46 -19s19 -28 19 -47zM600 364c0 -25 -6 -48 -18 -69c-13 -21 -30 -38 -51 -51s-44 -19 -69 -19s-49 6 -70 19s-38 30 -50 51c-13 21 -19 44 -19 69s6 48 19 69c12 21 29 38 50 51c21 12 45 18 70 18s48 -6 69 -18c21 -13 38 -30 51 -51c12 -21 18 -44 18 -69z
" />
    <glyph glyph-name="space" unicode=" " horiz-adv-x="600" 
 />
  </font>
</defs>
</svg>
